# xmcd CD database file
#
# Track frame offsets:
#	150
#	10335
#	36797
#	76367
#	108895
#	127692
#	168997
#
# Disc length: 2421 seconds
#
# Revision: 0
# Processed by: cddbd v1.5.2PL0 Copyright (c) Steve Scherf et al.
# Submitted via: CDex 1.70beta3
#
DISCID=45097307
DTITLE=Miles Davis - At Newport 1958
DYEAR=1958
DGENRE=Jazz
TTITLE0=Introduction 
TTITLE1=Ah-Leu-Cha 
TTITLE2=Straight, No Chaser 
TTITLE3=Fran-Dance 
TTITLE4=Two Bass Hit 
TTITLE5=Bye Bye Blackbird 
TTITLE6=Bye Bye (theme) 
EXTD=YEAR: 1958
EXTT0=
EXTT1=
EXTT2=
EXTT3=
EXTT4=
EXTT5=
EXTT6=
PLAYORDER=
